<svg width="1684" height="1123" viewBox="0 0 1684 1123" fill="none" xmlns="http://www.w3.org/2000/svg">
<g opacity="0.3">
<mask id="mask0_1_1331" style="mask-type:luminance" maskUnits="userSpaceOnUse" x="0" y="0" width="1684" height="1123">
<path d="M-0.00012207 1122.67L1684 1122.67L1684 0L-0.00012207 0L-0.00012207 1122.67Z" fill="white"/>
</mask>
<g mask="url(#mask0_1_1331)">
<path d="M662.889 75.3668C664.005 75.3668 664.91 74.462 664.91 73.346C664.91 72.2299 664.005 71.3252 662.889 71.3252C661.773 71.3252 660.868 72.2299 660.868 73.346C660.868 74.462 661.773 75.3668 662.889 75.3668Z" fill="white"/>
<path d="M858.907 405.206C858.907 404.084 858.008 403.185 856.886 403.185C855.763 403.185 854.865 404.084 854.865 405.206C854.865 406.329 855.763 407.227 856.886 407.227C858.008 407.227 858.907 406.329 858.907 405.206Z" fill="white"/>
<path d="M759.887 77.163C759.887 75.3668 758.54 74.0195 756.744 74.0195C754.948 74.0195 753.6 75.3668 753.6 77.163C753.6 78.9593 754.948 80.3065 756.744 80.3065C758.54 80.3065 759.887 78.9593 759.887 77.163Z" fill="white"/>
<path d="M1175.5 284.857C1177.23 284.857 1178.64 283.449 1178.64 281.713C1178.64 279.977 1177.23 278.57 1175.5 278.57C1173.76 278.57 1172.36 279.977 1172.36 281.713C1172.36 283.449 1173.76 284.857 1175.5 284.857Z" fill="white"/>
<path d="M996.321 230.295C996.321 228.274 994.525 226.478 992.504 226.478C990.483 226.478 988.687 228.274 988.687 230.295C988.687 232.316 990.483 234.112 992.504 234.112C994.749 234.336 996.321 232.54 996.321 230.295Z" fill="white"/>
<path d="M340.684 28.2149C340.684 26.1941 339.112 24.6223 337.091 24.6223C335.07 24.6223 333.499 26.1941 333.499 28.2149C333.499 30.2357 335.07 31.8074 337.091 31.8074C339.112 31.8074 340.684 30.0111 340.684 28.2149Z" fill="white"/>
<path d="M1266.43 177.305C1266.43 175.284 1264.86 173.712 1262.84 173.712C1260.82 173.712 1259.25 175.284 1259.25 177.305C1259.25 179.326 1260.82 180.897 1262.84 180.897C1264.86 180.897 1266.43 179.326 1266.43 177.305Z" fill="white"/>
<path d="M943.331 160.914C943.331 158.893 941.759 157.322 939.738 157.322C937.718 157.322 936.146 158.893 936.146 160.914C936.146 162.935 937.718 164.507 939.738 164.507C941.759 164.507 943.331 162.935 943.331 160.914Z" fill="white"/>
<path d="M999.914 520.392C999.914 518.371 998.342 516.799 996.321 516.799C994.3 516.799 992.729 518.371 992.729 520.392C992.729 522.413 994.3 523.984 996.321 523.984C998.342 523.984 999.914 522.188 999.914 520.392Z" fill="white"/>
<path d="M461.707 1054.56C461.707 1052.31 459.911 1050.74 457.89 1050.74C455.645 1050.74 454.073 1052.54 454.073 1054.56C454.073 1056.8 455.869 1058.37 457.89 1058.37C459.911 1058.37 461.707 1056.8 461.707 1054.56Z" fill="white"/>
<path d="M95.4932 854.947C95.4932 853.824 94.595 852.926 93.4724 852.926C92.3497 852.926 91.4517 853.824 91.4517 854.947C91.4517 856.069 92.3497 856.967 93.4724 856.967C94.595 856.967 95.4932 856.069 95.4932 854.947Z" fill="white"/>
<path d="M1161.35 200.657C1161.35 197.289 1158.66 194.37 1155.07 194.37C1151.7 194.37 1148.78 197.064 1148.78 200.657C1148.78 204.025 1151.47 206.943 1155.07 206.943C1158.66 206.943 1161.35 204.025 1161.35 200.657Z" fill="white"/>
<path d="M191.818 871.787C191.818 870.44 190.695 869.317 189.348 869.317C188.001 869.317 186.878 870.44 186.878 871.787C186.878 873.134 188.001 874.257 189.348 874.257C190.695 874.257 191.818 873.134 191.818 871.787Z" fill="white"/>
<path d="M769.318 319.659C770.806 319.659 772.012 318.453 772.012 316.965C772.012 315.477 770.806 314.27 769.318 314.27C767.83 314.27 766.624 315.477 766.624 316.965C766.624 318.453 767.83 319.659 769.318 319.659Z" fill="white"/>
<path d="M520.31 63.0176C523.287 63.0176 525.699 60.6049 525.699 57.6288C525.699 54.6526 523.287 52.24 520.31 52.24C517.334 52.24 514.922 54.6526 514.922 57.6288C514.922 60.6049 517.334 63.0176 520.31 63.0176Z" fill="white"/>
<path d="M63.1604 1033.45C63.1604 1031.88 62.0378 1030.76 60.466 1030.76C58.8943 1030.76 57.7717 1031.88 57.7717 1033.45C57.7717 1035.02 58.8943 1036.15 60.466 1036.15C62.0378 1036.15 63.1604 1035.02 63.1604 1033.45Z" fill="white"/>
<path d="M245.706 33.6036C245.706 31.3583 243.91 29.562 241.664 29.562C239.419 29.562 237.623 31.3583 237.623 33.6036C237.623 35.849 239.419 37.6452 241.664 37.6452C243.91 37.6452 245.706 35.849 245.706 33.6036Z" fill="white"/>
<path d="M421.74 662.971C421.74 660.725 419.944 658.929 417.699 658.929C415.453 658.929 413.657 660.725 413.657 662.971C413.657 665.216 415.453 667.012 417.699 667.012C419.944 667.012 421.74 665.216 421.74 662.971Z" fill="white"/>
<path d="M711.837 730.331C711.837 727.412 709.592 725.166 706.673 725.166C703.754 725.166 701.509 727.412 701.509 730.331C701.509 733.25 703.754 735.495 706.673 735.495C709.368 735.495 711.837 733.25 711.837 730.331Z" fill="white"/>
<path d="M742.823 752.784C744.683 752.784 746.191 751.276 746.191 749.416C746.191 747.556 744.683 746.048 742.823 746.048C740.963 746.048 739.455 747.556 739.455 749.416C739.455 751.276 740.963 752.784 742.823 752.784Z" fill="white"/>
<path d="M504.818 557.44C504.818 555.419 503.021 553.623 501 553.623C498.98 553.623 497.183 555.419 497.183 557.44C497.183 559.461 498.98 561.257 501 561.257C503.021 561.482 504.818 559.685 504.818 557.44Z" fill="white"/>
<path d="M1603.68 704.958C1607.03 704.958 1609.75 702.244 1609.75 698.896C1609.75 695.548 1607.03 692.834 1603.68 692.834C1600.34 692.834 1597.62 695.548 1597.62 698.896C1597.62 702.244 1600.34 704.958 1603.68 704.958Z" fill="white"/>
<path d="M948.271 42.8096C948.271 40.5643 946.475 38.5435 944.005 38.5435C941.535 38.5435 939.739 40.3397 939.739 42.8096C939.739 45.2795 941.535 47.0757 944.005 47.0757C946.475 47.0757 948.271 45.2795 948.271 42.8096Z" fill="white"/>
<path d="M801.651 211.21C804.007 211.21 805.917 209.299 805.917 206.943C805.917 204.587 804.007 202.677 801.651 202.677C799.295 202.677 797.385 204.587 797.385 206.943C797.385 209.299 799.295 211.21 801.651 211.21Z" fill="white"/>
<path d="M1188.97 367.934C1188.97 365.689 1187.17 363.668 1184.7 363.668C1182.23 363.668 1180.44 365.464 1180.44 367.934C1180.44 370.404 1182.23 372.2 1184.7 372.2C1187.17 372.2 1188.97 370.404 1188.97 367.934Z" fill="white"/>
<path d="M476.302 730.331C478.658 730.331 480.568 728.421 480.568 726.065C480.568 723.708 478.658 721.798 476.302 721.798C473.946 721.798 472.036 723.708 472.036 726.065C472.036 728.421 473.946 730.331 476.302 730.331Z" fill="white"/>
<path d="M1310.67 762.439C1312.9 762.439 1314.71 760.629 1314.71 758.397C1314.71 756.165 1312.9 754.356 1310.67 754.356C1308.44 754.356 1306.63 756.165 1306.63 758.397C1306.63 760.629 1308.44 762.439 1310.67 762.439Z" fill="white"/>
<path d="M1622.1 939.147C1625.57 939.147 1628.38 936.332 1628.38 932.86C1628.38 929.388 1625.57 926.573 1622.1 926.573C1618.62 926.573 1615.81 929.388 1615.81 932.86C1615.81 936.332 1618.62 939.147 1622.1 939.147Z" fill="white"/>
<path d="M1651.06 678.015C1652.8 678.015 1654.2 676.607 1654.2 674.871C1654.2 673.135 1652.8 671.728 1651.06 671.728C1649.32 671.728 1647.92 673.135 1647.92 674.871C1647.92 676.607 1649.32 678.015 1651.06 678.015Z" fill="white"/>
<path d="M1645.67 792.077C1645.67 790.057 1644.1 788.485 1642.08 788.485C1640.06 788.485 1638.49 790.057 1638.49 792.077C1638.49 794.098 1640.06 795.67 1642.08 795.67C1644.1 795.67 1645.67 794.098 1645.67 792.077Z" fill="white"/>
<path d="M1647.92 750.539C1647.92 746.946 1645 744.252 1641.63 744.252C1638.04 744.252 1635.34 747.171 1635.34 750.539C1635.34 754.131 1638.26 756.826 1641.63 756.826C1645 756.826 1647.92 754.131 1647.92 750.539Z" fill="white"/>
<path d="M345.848 512.309C345.848 509.839 343.827 507.818 341.357 507.818C338.887 507.818 336.867 509.839 336.867 512.309C336.867 514.779 338.887 516.799 341.357 516.799C343.827 516.799 345.848 514.779 345.848 512.309Z" fill="white"/>
<path d="M282.305 112.639C282.305 110.169 280.284 108.149 277.814 108.149C275.345 108.149 273.324 110.169 273.324 112.639C273.324 115.109 275.345 117.13 277.814 117.13C280.284 117.13 282.305 115.109 282.305 112.639Z" fill="white"/>
<path d="M1150.35 128.581C1150.35 127.459 1149.45 126.561 1148.33 126.561C1147.21 126.561 1146.31 127.459 1146.31 128.581C1146.31 129.704 1147.21 130.602 1148.33 130.602C1149.45 130.602 1150.35 129.704 1150.35 128.581Z" fill="white"/>
<path d="M390.081 514.779C390.081 513.656 389.183 512.758 388.06 512.758C386.937 512.758 386.039 513.656 386.039 514.779C386.039 515.901 386.937 516.799 388.06 516.799C389.183 516.575 390.081 515.677 390.081 514.779Z" fill="white"/>
<path d="M1279.46 149.238C1279.46 148.116 1278.56 147.218 1277.44 147.218C1276.31 147.218 1275.42 148.116 1275.42 149.238C1275.42 150.361 1276.31 151.259 1277.44 151.259C1278.56 151.259 1279.46 150.361 1279.46 149.238Z" fill="white"/>
<path d="M963.764 143.4C963.764 142.278 962.866 141.38 961.743 141.38C960.62 141.38 959.722 142.278 959.722 143.4C959.722 144.523 960.62 145.421 961.743 145.421C962.866 145.421 963.764 144.523 963.764 143.4Z" fill="white"/>
<path d="M1367.7 754.805C1367.7 752.56 1365.9 750.763 1363.66 750.763C1361.41 750.763 1359.62 752.56 1359.62 754.805C1359.62 757.05 1361.41 758.847 1363.66 758.847C1365.9 758.847 1367.7 757.05 1367.7 754.805Z" fill="white"/>
<path d="M1278.56 396.449C1278.56 394.653 1277.21 393.306 1275.42 393.306C1273.62 393.306 1272.27 394.653 1272.27 396.449C1272.27 398.246 1273.62 399.593 1275.42 399.593C1277.21 399.593 1278.56 398.246 1278.56 396.449Z" fill="white"/>
<path d="M851.497 76.265C852.613 76.265 853.518 75.3603 853.518 74.2442C853.518 73.1282 852.613 72.2234 851.497 72.2234C850.381 72.2234 849.476 73.1282 849.476 74.2442C849.476 75.3603 850.381 76.265 851.497 76.265Z" fill="white"/>
<path d="M1063.23 381.855C1063.23 380.283 1061.88 379.16 1060.54 379.16C1058.97 379.16 1057.84 380.508 1057.84 381.855C1057.84 383.426 1059.19 384.549 1060.54 384.549C1061.88 384.549 1063.23 383.426 1063.23 381.855Z" fill="white"/>
<path d="M1023.71 343.011C1024.83 343.011 1025.73 342.106 1025.73 340.99C1025.73 339.874 1024.83 338.969 1023.71 338.969C1022.6 338.969 1021.69 339.874 1021.69 340.99C1021.69 342.106 1022.6 343.011 1023.71 343.011Z" fill="white"/>
<path d="M726.656 63.0176C726.656 61.4458 725.309 60.0986 723.738 60.0986C722.166 60.0986 720.819 61.4458 720.819 63.0176C720.819 64.5893 722.166 65.9365 723.738 65.9365C725.309 65.9365 726.656 64.8138 726.656 63.0176Z" fill="white"/>
<path d="M526.822 399.593C526.822 396.45 524.352 393.98 521.209 393.98C518.065 393.98 515.595 396.45 515.595 399.593C515.595 402.737 518.065 405.206 521.209 405.206C524.352 405.206 526.822 402.737 526.822 399.593Z" fill="white"/>
<path d="M705.101 274.303C705.101 271.16 702.631 268.69 699.488 268.69C696.344 268.69 693.875 271.16 693.875 274.303C693.875 277.447 696.344 279.917 699.488 279.917C702.631 279.692 705.101 277.222 705.101 274.303Z" fill="white"/>
<path d="M904.711 306.861C904.711 303.717 902.242 301.247 899.098 301.247C895.955 301.247 893.485 303.717 893.485 306.861C893.485 310.004 895.955 312.474 899.098 312.474C902.242 312.474 904.711 310.004 904.711 306.861Z" fill="white"/>
<path d="M1362.09 584.16C1362.98 585.058 1364.11 585.058 1365 584.16C1365.9 583.261 1365.9 582.139 1365 581.241C1364.11 580.342 1362.98 580.342 1362.09 581.241C1361.19 582.139 1361.41 583.261 1362.09 584.16Z" fill="white"/>
<path d="M1292.26 648.601C1293.38 649.723 1295.4 649.723 1296.52 648.601C1297.64 647.478 1297.64 645.457 1296.52 644.334C1295.4 643.212 1293.38 643.212 1292.26 644.334C1291.13 645.457 1291.13 647.253 1292.26 648.601Z" fill="white"/>
<path d="M851.497 799.936C852.62 801.059 854.64 801.059 855.763 799.936C856.886 798.813 856.886 796.793 855.763 795.67C854.64 794.547 852.62 794.547 851.497 795.67C850.374 796.793 850.374 798.589 851.497 799.936Z" fill="white"/>
<path d="M977.909 746.048C979.481 747.62 981.951 747.62 983.298 746.048C984.645 744.476 984.87 742.007 983.298 740.659C981.726 739.312 979.256 739.088 977.909 740.659C976.337 742.231 976.337 744.701 977.909 746.048Z" fill="white"/>
<path d="M1064.58 757.724C1065.93 759.071 1068.17 759.071 1069.52 757.724C1070.87 756.377 1070.87 754.131 1069.52 752.784C1068.17 751.437 1065.93 751.437 1064.58 752.784C1063.23 754.131 1063.23 756.377 1064.58 757.724Z" fill="white"/>
<path d="M999.914 853.375C1003.39 853.375 1006.2 850.56 1006.2 847.088C1006.2 843.616 1003.39 840.801 999.914 840.801C996.441 840.801 993.626 843.616 993.626 847.088C993.626 850.56 996.441 853.375 999.914 853.375Z" fill="white"/>
<path d="M85.3892 992.586C88.8614 992.586 91.6761 989.771 91.6761 986.299C91.6761 982.827 88.8614 980.012 85.3892 980.012C81.917 980.012 79.1023 982.827 79.1023 986.299C79.1023 989.771 81.917 992.586 85.3892 992.586Z" fill="white"/>
<path d="M34.6447 927.022C37.1146 929.492 40.9317 929.492 43.4015 927.022C45.8714 924.552 45.8714 920.735 43.4015 918.265C40.9317 915.795 37.1146 915.795 34.6447 918.265C32.3994 920.51 32.3994 924.552 34.6447 927.022Z" fill="white"/>
<path d="M707.347 1059.05C709.816 1061.52 713.633 1061.52 716.103 1059.05C718.573 1056.58 718.573 1052.76 716.103 1050.29C713.633 1047.82 709.816 1047.82 707.347 1050.29C705.101 1052.54 705.101 1056.58 707.347 1059.05Z" fill="white"/>
<path d="M1099.16 1078.13C1101.63 1080.6 1105.44 1080.6 1107.91 1078.13C1110.38 1075.66 1110.38 1071.85 1107.91 1069.38C1105.44 1066.91 1101.63 1066.91 1099.16 1069.38C1096.69 1071.85 1096.69 1075.66 1099.16 1078.13Z" fill="white"/>
<path d="M1116.22 488.284C1117.71 488.284 1118.92 487.077 1118.92 485.589C1118.92 484.101 1117.71 482.895 1116.22 482.895C1114.73 482.895 1113.53 484.101 1113.53 485.589C1113.53 487.077 1114.73 488.284 1116.22 488.284Z" fill="white"/>
<path d="M1186.5 807.346C1188.86 807.346 1190.77 805.436 1190.77 803.079C1190.77 800.723 1188.86 798.813 1186.5 798.813C1184.14 798.813 1182.23 800.723 1182.23 803.079C1182.23 805.436 1184.14 807.346 1186.5 807.346Z" fill="white"/>
<path d="M1171.01 590.671C1173.36 590.671 1175.27 588.761 1175.27 586.405C1175.27 584.049 1173.36 582.139 1171.01 582.139C1168.65 582.139 1166.74 584.049 1166.74 586.405C1166.74 588.761 1168.65 590.671 1171.01 590.671Z" fill="white"/>
<path d="M861.601 943.637C863.957 943.637 865.867 941.727 865.867 939.371C865.867 937.015 863.957 935.105 861.601 935.105C859.245 935.105 857.335 937.015 857.335 939.371C857.335 941.727 859.245 943.637 861.601 943.637Z" fill="white"/>
<path d="M981.277 888.851C982.393 888.851 983.298 887.946 983.298 886.83C983.298 885.714 982.393 884.81 981.277 884.81C980.161 884.81 979.257 885.714 979.257 886.83C979.257 887.946 980.161 888.851 981.277 888.851Z" fill="white"/>
<path d="M1062.56 784.443C1063.23 785.117 1064.58 785.117 1065.25 784.443C1065.93 783.77 1065.93 782.422 1065.25 781.749C1064.58 781.075 1063.23 781.075 1062.56 781.749C1061.88 782.647 1061.88 783.77 1062.56 784.443Z" fill="white"/>
<path d="M1228.04 717.083C1228.94 717.981 1230.28 717.981 1230.96 717.083C1231.63 716.185 1231.86 714.838 1230.96 714.164C1230.06 713.266 1228.71 713.266 1228.04 714.164C1227.37 714.838 1227.37 716.185 1228.04 717.083Z" fill="white"/>
<path d="M680.178 613.349C681.301 614.472 683.097 614.472 684.22 613.349C685.342 612.226 685.342 610.43 684.22 609.307C683.097 608.185 681.301 608.185 680.178 609.307C679.055 610.43 679.055 612.226 680.178 613.349Z" fill="white"/>
<path d="M905.385 719.104C906.059 719.778 907.406 719.778 908.079 719.104C908.753 718.43 908.753 717.083 908.079 716.41C907.406 715.736 906.059 715.736 905.385 716.41C904.711 717.083 904.711 718.206 905.385 719.104Z" fill="white"/>
<path d="M1327.73 635.802C1329.34 635.802 1330.65 634.495 1330.65 632.883C1330.65 631.271 1329.34 629.964 1327.73 629.964C1326.12 629.964 1324.81 631.271 1324.81 632.883C1324.81 634.495 1326.12 635.802 1327.73 635.802Z" fill="white"/>
<path d="M1195.71 472.117C1198.81 472.117 1201.32 469.604 1201.32 466.504C1201.32 463.404 1198.81 460.891 1195.71 460.891C1192.61 460.891 1190.09 463.404 1190.09 466.504C1190.09 469.604 1192.61 472.117 1195.71 472.117Z" fill="white"/>
<path d="M1031.35 590.222C1034.45 590.222 1036.96 587.709 1036.96 584.609C1036.96 581.508 1034.45 578.995 1031.35 578.995C1028.25 578.995 1025.73 581.508 1025.73 584.609C1025.73 587.709 1028.25 590.222 1031.35 590.222Z" fill="white"/>
<path d="M634.822 476.159C637.922 476.159 640.436 473.646 640.436 470.545C640.436 467.445 637.922 464.932 634.822 464.932C631.722 464.932 629.209 467.445 629.209 470.545C629.209 473.646 631.722 476.159 634.822 476.159Z" fill="white"/>
<path d="M553.317 396.899C553.317 395.327 551.97 394.204 550.622 394.204C549.051 394.204 547.928 395.551 547.928 396.899C547.928 398.246 549.275 399.593 550.622 399.593C551.97 399.593 553.317 398.47 553.317 396.899Z" fill="white"/>
<path d="M398.389 376.017C398.389 373.772 396.593 372.2 394.572 372.2C392.551 372.2 390.755 373.996 390.755 376.017C390.755 378.262 392.551 379.834 394.572 379.834C396.593 379.834 398.389 378.262 398.389 376.017Z" fill="white"/>
<path d="M511.329 1076.79C511.329 1074.99 509.982 1073.64 508.186 1073.64C506.389 1073.64 505.042 1074.99 505.042 1076.79C505.042 1078.58 506.389 1079.93 508.186 1079.93C509.982 1079.93 511.329 1078.58 511.329 1076.79Z" fill="white"/>
<path d="M1027.53 1037.72C1025.06 1035.25 1025.06 1031.43 1027.53 1028.96C1030 1026.49 1033.82 1026.49 1036.29 1028.96C1038.76 1031.43 1038.76 1035.25 1036.29 1037.72C1033.82 1040.19 1029.78 1040.19 1027.53 1037.72Z" fill="white"/>
</g>
</g>
</svg>
