<svg width="34" height="80" viewBox="0 0 34 80" fill="none" xmlns="http://www.w3.org/2000/svg">
<path d="M17 73.8983C16.6068 73.8983 16.2 73.8712 15.8068 73.8305C11.0746 73.3017 7.16947 69.3424 6.6949 64.5966C6.28812 60.4881 8.25422 56.6644 11.8068 54.5898L13.8271 53.4102V9.27457C13.8271 7.52541 15.2508 6.10168 17 6.10168C18.7491 6.10168 20.1729 7.52541 20.1729 9.27457V53.4102L22.1932 54.5898C25.3796 56.4474 27.3593 59.878 27.3593 63.539C27.3593 66.3051 26.2881 68.9085 24.322 70.861C23.3646 71.8284 22.2239 72.5952 20.9667 73.1167C19.7095 73.6382 18.361 73.9039 17 73.8983Z" fill="url(#paint0_linear_1_1445)"/>
<path d="M32.9729 59.5661C33.2984 60.8543 33.4611 62.1966 33.4611 63.539C33.4611 64.6644 32.5526 65.5729 31.4272 65.5729C30.3018 65.5729 29.3933 64.6644 29.3933 63.539C29.3933 62.5221 29.2712 61.5187 29.0272 60.5424C28.756 59.4577 29.4204 58.3458 30.5051 58.0746C31.5899 57.8034 32.7018 58.4678 32.9729 59.5661Z" fill="white"/>
<path d="M29.0951 71.6746C29.9222 72.4203 29.99 73.7085 29.2443 74.5492C26.0714 78.0746 21.7053 80 17.0273 80C16.4036 80 15.7663 79.9729 15.129 79.8915C7.48154 79.0508 1.37985 72.8678 0.620524 65.1932C0.023914 59.1864 2.79002 53.3288 7.72561 49.9525V9.27458C7.72561 4.16271 11.8883 0 17.0002 0C22.112 0 26.2748 4.16271 26.2748 9.27458V49.9525C27.007 50.4542 27.6985 51.0237 28.3493 51.6339C28.7232 52.0098 28.9356 52.5168 28.9411 53.047C28.9467 53.5771 28.745 54.0885 28.379 54.4721C28.0131 54.8557 27.5118 55.0813 26.982 55.1008C26.4521 55.1202 25.9357 54.932 25.5426 54.5763C24.8375 53.9119 24.051 53.3153 23.2239 52.8407C22.5866 52.4746 22.207 51.7966 22.207 51.078V50.4271H17.0002C15.8748 50.4271 14.9663 49.5186 14.9663 48.3932C14.9663 47.2678 15.8748 46.3593 17.0002 46.3593H22.207V38.5898H17.0002C15.8748 38.5898 14.9663 37.6814 14.9663 36.5559C14.9663 35.4305 15.8748 34.522 17.0002 34.522H22.207V26.7525H17.0002C15.8748 26.7525 14.9663 25.8441 14.9663 24.7186C14.9663 23.5932 15.8748 22.6847 17.0002 22.6847H22.207V14.9153H17.0002C15.8748 14.9153 14.9663 14.0068 14.9663 12.8814C14.9663 11.7559 15.8748 10.8475 17.0002 10.8475H22.207V9.27458C22.1759 7.91423 21.6137 6.62005 20.6406 5.66893C19.6676 4.7178 18.3609 4.18528 17.0002 4.18528C15.6395 4.18528 14.3328 4.7178 13.3597 5.66893C12.3867 6.62005 11.8245 7.91423 11.7934 9.27458V51.078C11.7934 51.7966 11.4137 52.4746 10.79 52.8271C6.53239 55.3085 4.18663 59.8915 4.67476 64.8C5.23069 70.4814 9.92222 75.2271 15.5765 75.8508C19.6443 76.3119 23.5087 74.8339 26.2205 71.8237C26.9663 70.9966 28.2544 70.9153 29.0951 71.6746Z" fill="white"/>
<path d="M22.0035 58.617C22.6611 59.2737 23.1828 60.0537 23.5387 60.9122C23.8947 61.7707 24.0779 62.691 24.0779 63.6204C24.0779 64.5498 23.8947 65.47 23.5387 66.3286C23.1828 67.1871 22.6611 67.967 22.0035 68.6238C20.6204 70.0068 18.817 70.6984 17.0001 70.6984C15.1831 70.6984 13.3797 70.0068 11.9967 68.6238C11.3391 67.967 10.8174 67.1871 10.4614 66.3286C10.1055 65.47 9.92228 64.5498 9.92228 63.6204C9.92228 62.691 10.1055 61.7707 10.4614 60.9122C10.8174 60.0537 11.3391 59.2737 11.9967 58.617C12.7831 57.817 14.0713 57.817 14.8713 58.617C15.6713 59.417 15.6713 60.6916 14.8713 61.4916C13.6916 62.6712 13.6916 64.5695 14.8713 65.7492C16.0509 66.9289 17.9628 66.9289 19.1289 65.7492C20.3086 64.5695 20.3086 62.6712 19.1289 61.4916C18.3289 60.6916 18.3289 59.417 19.1289 58.617C19.9289 57.817 21.217 57.817 22.0035 58.617ZM4.60686 16.1899V40C4.60686 41.1255 3.69838 42.0339 2.57296 42.0339C1.44754 42.0339 0.539062 41.1255 0.539062 40V16.1899C0.539062 15.0645 1.44754 14.156 2.57296 14.156C3.69838 14.156 4.60686 15.0645 4.60686 16.1899ZM4.60686 8.74581V10.0882C4.60686 11.2136 3.69838 12.1221 2.57296 12.1221C1.44754 12.1221 0.539062 11.2136 0.539062 10.0882V8.74581C0.539062 7.62039 1.44754 6.71191 2.57296 6.71191C3.69838 6.71191 4.60686 7.62039 4.60686 8.74581Z" fill="white"/>
<defs>
<linearGradient id="paint0_linear_1_1445" x1="16.2032" y1="37.6603" x2="32.3118" y2="41.4974" gradientUnits="userSpaceOnUse">
<stop stop-color="#FF3B00"/>
<stop offset="1" stop-color="#FF8D00"/>
</linearGradient>
</defs>
</svg>
