<svg width="1242" height="1242" viewBox="0 0 1242 1242" fill="none" xmlns="http://www.w3.org/2000/svg">
<circle opacity="0.1" cx="621" cy="621" r="621" fill="#3EA596"/>
<circle opacity="0.2" cx="621" cy="621" r="594.546" fill="#3EA596"/>
<path d="M152.057 772.663C131.509 758.976 108.969 748.548 85.2336 741.745C99.5296 806.354 125.403 867.844 161.603 923.243C190.05 863.698 215.252 812.168 152.057 772.663Z" fill="#37B5A5"/>
<path d="M665.066 881.448C354.244 1036.8 276.347 679.338 90.77 523.986C88.2711 521.67 85.4396 519.74 82.3694 518.261C75.6069 552.142 72.0274 586.581 71.6777 621.129C71.6963 661.713 76.2429 702.169 85.2333 741.746C108.968 748.548 131.509 758.977 152.056 772.663C215.252 812.169 190.241 863.699 162.366 923.244C215.059 1002.65 287.408 1067.09 372.381 1110.28C537.53 959.505 747.927 963.322 945.15 1005.69C963.414 1006.43 981.174 1011.89 996.7 1021.53C1068.18 954.547 1120.45 869.68 1148.1 775.717C1099.96 726.008 1041.23 687.782 976.271 663.879C805.013 601.662 789.357 819.231 665.066 881.448Z" fill="#4DCEBB"/>
<path d="M371.808 1110.27C472.396 1161.62 586.394 1180.65 698.214 1164.76C810.033 1148.88 914.214 1098.85 996.508 1021.53C980.983 1011.89 963.223 1006.43 944.959 1005.69C747.354 963.32 536.957 959.503 371.808 1110.27Z" fill="#37B5A5"/>
<path d="M323.124 461.962C375.437 388.676 286.848 329.512 194.823 274.929C160.699 316.939 132.971 363.757 112.536 413.868C203.415 479.52 270.429 577.808 323.124 461.962Z" fill="#37B5A5"/>
<path d="M1162.99 532.002C1054.74 566.736 945.532 555.667 882.719 492.878C823.342 421.691 963.288 368.634 1060.66 292.104C1037.76 261.655 1011.78 233.643 983.144 208.511C951.711 209.836 920.927 217.881 892.867 232.103C864.807 246.325 840.123 266.395 820.478 290.959C742.772 430.851 773.893 601.662 649.602 679.338C571.705 726.096 509.655 663.879 463.07 617.312C369.709 492.878 447.414 275.5 291.239 197.442L277.493 191.907C246.811 216.47 218.842 244.237 194.059 274.736C286.084 329.319 374.673 389.246 322.36 461.769C269.665 577.615 202.651 479.327 112.344 413.675C98.5626 447.415 88.2009 482.453 81.4148 518.261C84.4849 519.74 87.3165 521.67 89.8154 523.986C276.347 679.338 354.244 1036.8 665.066 881.448C789.357 819.231 805.013 601.662 975.889 663.879C1040.84 687.782 1099.57 726.008 1147.72 775.717C1162.47 725.508 1169.99 673.457 1170.06 621.129C1170.04 591.281 1167.67 561.481 1162.99 532.002Z" fill="#36EAC7"/>
<path d="M882.719 492.877C945.532 555.666 1054.55 566.736 1162.99 532.001C1148.59 444.997 1113.5 362.723 1060.66 292.103C963.288 368.634 823.342 421.69 882.719 492.877Z" fill="#37B5A5"/>
<path d="M509.655 306.419C509.655 353.177 571.705 399.744 633.946 384.286C742.391 323.977 720.816 198.207 711.843 79.6894C650.061 69.0068 586.902 69.0068 525.12 79.6894C535.621 148.395 500.3 241.148 509.655 306.419Z" fill="#92FFEA"/>
<path d="M711.842 79.6907C720.052 198.208 742.39 323.978 633.946 385.05C571.705 400.509 509.655 353.942 509.655 307.184C500.3 241.15 535.62 148.397 525.12 80.4541C434.772 96.4013 349.883 134.793 278.256 192.101L292.003 197.636C447.414 275.503 369.708 492.88 463.833 617.505C510.419 664.073 572.468 726.29 650.365 679.531C774.656 601.856 743.535 431.427 822.196 291.152C841.841 266.588 866.525 246.519 894.585 232.297C922.645 218.075 953.429 210.03 984.862 208.705C907.764 140.951 813.154 96.2436 711.842 79.6907Z" fill="#55FFDE"/>
<path d="M535.238 828.393C526.456 851.104 485.98 856.638 444.741 840.798C403.502 824.957 377.154 793.658 385.937 770.947C394.719 748.236 434.431 742.701 476.434 759.114C518.437 775.527 544.021 805.682 535.238 828.393Z" fill="#4DCEBB"/>
<path d="M662.012 550.133C669.267 581.814 640.438 615.595 597.289 625.519C554.14 635.443 513.474 617.694 506.219 586.013C498.964 554.332 527.793 520.552 570.751 511.009C613.708 501.467 654.757 518.452 662.012 550.133Z" fill="#36EAC7"/>
<path d="M966.343 821.714C960.979 831.639 952.801 839.759 942.836 845.055C932.871 850.35 921.563 852.585 910.332 851.478C899.101 850.372 888.447 845.974 879.708 838.835C870.969 831.697 864.534 822.137 861.212 811.356C857.889 800.575 857.827 789.053 861.032 778.236C864.238 767.42 870.569 757.791 879.23 750.559C887.891 743.326 898.497 738.813 909.715 737.585C920.933 736.357 932.265 738.469 942.287 743.656C949.041 747.152 955.031 751.958 959.908 757.794C964.784 763.629 968.449 770.377 970.688 777.643C972.928 784.909 973.697 792.549 972.951 800.115C972.205 807.682 969.958 815.024 966.343 821.714Z" fill="#37B5A5"/>
<path d="M706.688 1051.3C707.833 1067.52 683.395 1082.22 652.084 1084.51C620.772 1086.8 594.807 1075.35 593.28 1059.32C591.752 1043.29 616.572 1028.4 647.884 1026.3C679.195 1024.2 705.542 1035.27 706.688 1051.3Z" fill="#228778"/>
<path d="M475.862 154.691C483.117 169.005 466.507 192.861 437.677 206.602C408.848 220.344 380.4 220.916 373.718 206.602C367.036 192.289 383.073 168.433 411.903 154.691C440.732 140.95 468.416 140.378 475.862 154.691Z" fill="#92FFEA"/>
<path d="M1041.57 445.739C1042.71 461.771 1018.46 476.657 987.153 479.138C955.842 481.619 929.876 470.359 928.158 454.328C926.439 438.296 951.45 423.219 982.762 420.929C1014.07 418.639 1040.23 429.708 1041.57 445.739Z" fill="#36EAC7"/>
<path opacity="0.2" d="M775.038 94.1938C789.735 144.213 797.193 196.078 797.185 248.21C797.21 320.322 783.02 391.733 755.424 458.361C727.829 524.989 687.37 585.529 636.359 636.52C585.348 687.511 524.785 727.955 458.132 755.54C391.478 783.124 320.04 797.309 247.9 797.284C195.757 797.354 143.872 789.964 93.8247 775.337C120.589 866.84 170.727 949.801 239.303 1016.06C307.879 1082.31 392.531 1129.57 484.928 1153.2C577.325 1176.82 674.283 1175.99 766.261 1150.78C858.239 1125.58 942.066 1076.87 1009.49 1009.45C1076.92 942.026 1125.63 858.216 1150.82 766.267C1176.01 674.317 1176.81 577.396 1153.15 485.041C1129.5 392.686 1082.19 308.08 1015.89 239.549C949.591 171.017 866.584 120.923 775.038 94.1938Z" fill="url(#paint0_linear_1_1409)"/>
<path opacity="0.7" d="M489.608 224.733C506.027 246.49 488.653 287.332 451.423 315.959C414.193 344.587 369.517 350.122 353.098 328.174C336.678 306.226 353.098 265.575 391.282 236.948C429.467 208.32 472.615 202.213 489.608 224.733Z" fill="white"/>
<defs>
<linearGradient id="paint0_linear_1_1409" x1="318.35" y1="385.812" x2="1246.73" y2="1108.33" gradientUnits="userSpaceOnUse">
<stop/>
<stop offset="0.57"/>
<stop offset="0.61"/>
<stop offset="1" stop-color="#404040"/>
</linearGradient>
</defs>
</svg>
