<svg width="182" height="187" viewBox="0 0 182 187" fill="none" xmlns="http://www.w3.org/2000/svg">
<path d="M48.5429 116.431C50.0448 103.164 61.809 93.6529 75.0751 95.1548C88.3412 96.6566 97.8527 108.421 96.3509 121.687C95.0993 133.451 85.5878 142.212 74.0739 142.712C73.5733 142.712 51.5466 168.744 49.7945 167.993C48.2926 167.242 70.8199 142.963 70.3193 142.963C69.8187 142.963 70.069 142.963 69.5684 142.963C67.566 142.712 26.5163 187.517 22.7617 185.264C18.2562 182.761 62.3096 140.96 61.809 140.71C61.0581 140.46 59.0557 139.208 58.3048 138.457C58.0545 138.207 26.5163 171.497 24.0132 169.245C20.7593 166.491 53.7993 134.452 53.549 133.952C53.0484 133.451 52.7981 132.951 52.2975 132.2C52.0472 131.699 4.48956 180.258 0.735013 177.254C-2.01832 175.002 49.5442 126.693 49.2938 125.692C49.2938 125.692 49.0435 122.688 48.2926 123.189C43.2866 126.192 22.7617 143.964 21.5102 142.212C19.2575 139.458 48.2926 118.183 48.5429 116.431Z" fill="#FFD400"/>
<path d="M156.424 60.8625L122.382 29.8249L129.892 33.3291C134.647 35.5819 139.403 38.8358 143.658 42.8407C146.912 46.0946 149.916 49.5988 152.169 53.3534L156.424 60.8625Z" fill="white"/>
<path d="M167.253 9.77488L141.617 37.8871L147.166 42.9468L172.801 14.8345L167.253 9.77488Z" fill="#66ACFF"/>
<path d="M94.3484 52.3529C92.346 50.6007 89.3423 50.6007 87.3399 52.6032L48.5429 95.1547C46.7908 97.1571 43.2865 97.908 40.7835 96.9068L2.2368 80.8874C-0.266233 79.8862 -0.766839 80.3868 1.23559 82.3892L29.7702 108.421C31.7726 110.173 35.0265 113.177 37.029 115.179L38.2805 116.43C40.2829 118.183 43.2865 118.183 45.289 116.18L53.0484 107.42C54.8005 105.417 57.8041 102.163 59.8065 100.161L95.8502 60.6129C97.6023 58.6104 97.6023 55.6068 95.5999 53.6044L94.3484 52.3529Z" fill="#66ACFF"/>
<path d="M137.901 90.399C139.904 92.1511 140.154 95.4051 138.152 97.4075L99.3546 139.959C97.6025 141.961 97.1019 145.466 98.3534 147.969L117.877 184.763C119.129 187.266 118.628 187.517 116.626 185.765L88.091 159.733C86.0885 157.981 82.8346 154.977 80.8322 152.975L79.5806 151.723C77.5782 149.971 77.3279 146.717 79.3303 144.715L87.0897 135.954C88.8419 133.952 91.8455 130.698 93.8479 128.695L129.892 89.1475C131.644 87.145 134.898 86.8947 136.9 88.8972L137.901 90.399Z" fill="#66ACFF"/>
<path d="M157.925 25.5702C145.911 14.5569 105.862 39.0866 95.0992 51.1012L83.5853 63.8666L51.7968 98.9091C55.301 107.169 61.3083 115.679 69.318 122.938C77.3277 130.197 86.3386 135.453 94.8489 138.207L126.637 103.164L138.151 90.3988C149.165 78.3842 169.69 36.3333 157.925 25.5702Z" fill="#FFFCF0"/>
<path d="M135.398 50.3501C142.407 56.6077 147.663 63.8665 151.418 70.875C160.178 53.8544 167.187 31.8277 159.177 24.5689C150.917 17.0598 129.641 26.321 113.622 36.5835C120.881 39.3368 128.39 43.8422 135.398 50.3501Z" fill="#66EDFF"/>
<path d="M124.385 82.1383C129.391 76.6316 128.89 68.1213 123.384 63.1153C117.877 58.1092 109.367 58.6098 104.361 64.1165C99.3546 69.6231 99.8552 78.1335 105.362 83.1395C111.119 87.8953 119.629 87.645 124.385 82.1383ZM108.366 79.8856C104.611 76.6316 104.361 70.8747 107.865 67.1201C111.119 63.3656 116.876 63.1153 120.63 66.6195C124.385 69.8735 124.635 75.6304 121.131 79.385C117.877 82.8892 112.12 83.1395 108.366 79.8856Z" fill="#66EDFF"/>
<path d="M120.63 66.3692C116.876 63.1152 111.119 63.3655 107.865 66.8698C104.611 70.6243 104.861 76.3813 108.366 79.6352C112.12 82.8892 117.877 82.6389 121.131 79.1346C124.635 75.3801 124.385 69.6231 120.63 66.3692Z" fill="#323232"/>
<path d="M179.702 14.0561C176.698 17.5603 171.442 17.8106 167.938 14.5567C164.433 11.5531 164.433 6.29669 167.437 2.79244C170.441 -0.711805 175.697 -0.962108 179.201 2.29183C182.705 5.29547 182.956 10.5518 179.702 14.0561Z" fill="#66EDFF"/>
<path d="M75.0751 115.429C66.5648 107.67 57.5539 92.6515 57.5539 92.6515C56.803 91.4 55.5515 91.4 54.5502 92.4012L45.7896 102.163C44.7884 103.164 44.7884 104.916 45.289 106.168C45.289 106.168 54.2999 121.436 62.8103 129.196C71.3206 136.955 87.34 144.464 87.34 144.464C88.5915 144.965 90.3436 144.715 91.3448 143.713L100.105 133.952C101.107 132.95 100.856 131.699 99.6048 131.198C99.6048 130.698 83.5854 123.188 75.0751 115.429Z" fill="#66EDFF"/>
<path opacity="0.2" d="M100.856 133.701C101.607 132.95 101.607 131.949 101.107 131.448L128.64 101.161L140.154 88.3958C143.658 84.6413 147.913 77.8831 152.169 69.8734C160.178 54.6049 166.686 35.0813 161.68 26.0703C161.68 25.82 161.43 25.82 161.43 25.5697C161.179 25.3194 161.179 25.0691 160.929 24.8188C160.679 24.3182 160.429 24.0679 159.928 23.8176C159.928 23.8176 159.928 23.5673 159.678 23.5673C159.177 23.0667 158.676 22.8164 158.176 22.5661C157.675 22.3158 156.924 22.0655 156.424 21.8152C154.171 37.8346 146.161 54.6049 133.145 68.8722C109.867 94.4031 77.3279 104.165 53.7993 94.6534L46.7909 102.413C45.7896 103.414 45.7896 105.166 46.2903 106.418C46.2903 106.418 55.3012 121.686 63.8115 129.446C72.3218 137.205 88.3412 144.714 88.3412 144.714C89.5927 145.215 91.3448 144.964 92.3461 143.963L100.856 133.701Z" fill="url(#paint0_linear_1_1225)"/>
<defs>
<linearGradient id="paint0_linear_1_1225" x1="96.5843" y1="63.3237" x2="164.273" y2="122.444" gradientUnits="userSpaceOnUse">
<stop offset="0.1921"/>
<stop offset="0.4661"/>
<stop offset="0.484"/>
<stop offset="0.8165" stop-color="#404040"/>
</linearGradient>
</defs>
</svg>
