<svg width="33" height="80" viewBox="0 0 33 80" fill="none" xmlns="http://www.w3.org/2000/svg">
<path d="M16.5 73.8984C16.1068 73.8984 15.7 73.8713 15.3068 73.8306C10.5746 73.3018 6.66947 69.3425 6.1949 64.5967C5.78812 60.4882 7.75422 56.6645 11.3068 54.5899L13.3271 53.4103V9.27469C13.3271 7.52554 14.7508 6.10181 16.5 6.10181C18.2491 6.10181 19.6729 7.52554 19.6729 9.27469V53.4103L21.6932 54.5899C24.8796 56.4476 26.8593 59.8781 26.8593 63.5391C26.8593 66.3052 25.7881 68.9086 23.822 70.8611C22.8646 71.8285 21.7239 72.5953 20.4667 73.1168C19.2095 73.6383 17.861 73.904 16.5 73.8984Z" fill="url(#paint0_linear_1_1575)"/>
<path d="M32.4728 59.566C32.7982 60.8542 32.961 62.1965 32.961 63.5389C32.961 64.6643 32.0525 65.5728 30.9271 65.5728C29.8016 65.5728 28.8932 64.6643 28.8932 63.5389C28.8932 62.5219 28.7711 61.5186 28.5271 60.5423C28.2559 59.4575 28.9203 58.3457 30.005 58.0745C31.0898 57.8033 32.2016 58.4677 32.4728 59.566Z" fill="white"/>
<path d="M28.595 71.6746C29.4221 72.4203 29.4899 73.7085 28.7441 74.5492C25.5712 78.0746 21.2051 80 16.5272 80C15.9035 80 15.2662 79.9729 14.6289 79.8915C6.98142 79.0508 0.879724 72.8678 0.120402 65.1932C-0.476208 59.1864 2.28989 53.3288 7.22549 49.9525V9.27458C7.22549 4.16271 11.3882 0 16.5001 0C21.6119 0 25.7746 4.16271 25.7746 9.27458V49.9525C26.5068 50.4542 27.1984 51.0237 27.8492 51.6339C28.2231 52.0098 28.4354 52.5168 28.441 53.047C28.4465 53.5771 28.2448 54.0885 27.8789 54.4721C27.5129 54.8557 27.0117 55.0813 26.4818 55.1008C25.952 55.1202 25.4355 54.932 25.0424 54.5763C24.3374 53.9119 23.5509 53.3153 22.7238 52.8407C22.0865 52.4746 21.7068 51.7966 21.7068 51.078V50.4271H16.5001C15.3746 50.4271 14.4662 49.5186 14.4662 48.3932C14.4662 47.2678 15.3746 46.3593 16.5001 46.3593H21.7068V38.5898H16.5001C15.3746 38.5898 14.4662 37.6814 14.4662 36.5559C14.4662 35.4305 15.3746 34.522 16.5001 34.522H21.7068V26.7525H16.5001C15.3746 26.7525 14.4662 25.8441 14.4662 24.7186C14.4662 23.5932 15.3746 22.6847 16.5001 22.6847H21.7068V14.9153H16.5001C15.3746 14.9153 14.4662 14.0068 14.4662 12.8814C14.4662 11.7559 15.3746 10.8475 16.5001 10.8475H21.7068V9.27458C21.6758 7.91423 21.1136 6.62005 20.1405 5.66893C19.1674 4.7178 17.8608 4.18528 16.5001 4.18528C15.1394 4.18528 13.8327 4.7178 12.8596 5.66893C11.8865 6.62005 11.3243 7.91423 11.2933 9.27458V51.078C11.2933 51.7966 10.9136 52.4746 10.2899 52.8271C6.03227 55.3085 3.6865 59.8915 4.17464 64.8C4.73057 70.4814 9.4221 75.2271 15.0763 75.8508C19.1441 76.3119 23.0085 74.8339 25.7204 71.8237C26.4662 70.9966 27.7543 70.9153 28.595 71.6746Z" fill="white"/>
<path d="M21.5033 58.617C22.161 59.2737 22.6827 60.0537 23.0386 60.9122C23.3945 61.7707 23.5778 62.691 23.5778 63.6204C23.5778 64.5498 23.3945 65.47 23.0386 66.3286C22.6827 67.1871 22.161 67.967 21.5033 68.6238C20.1203 70.0068 18.3169 70.6984 16.5 70.6984C14.683 70.6984 12.8796 70.0068 11.4966 68.6238C10.839 67.967 10.3173 67.1871 9.96132 66.3286C9.60537 65.47 9.42216 64.5498 9.42216 63.6204C9.42216 62.691 9.60537 61.7707 9.96132 60.9122C10.3173 60.0537 10.839 59.2737 11.4966 58.617C12.283 57.817 13.5711 57.817 14.3711 58.617C15.1711 59.417 15.1711 60.6916 14.3711 61.4916C13.1915 62.6712 13.1915 64.5695 14.3711 65.7492C15.5508 66.9289 17.4627 66.9289 18.6288 65.7492C19.8084 64.5695 19.8084 62.6712 18.6288 61.4916C17.8288 60.6916 17.8288 59.417 18.6288 58.617C19.4288 57.817 20.7169 57.817 21.5033 58.617ZM4.10674 16.1899V40C4.10674 41.1255 3.19826 42.0339 2.07284 42.0339C0.947415 42.0339 0.0389404 41.1255 0.0389404 40V16.1899C0.0389404 15.0645 0.947415 14.156 2.07284 14.156C3.19826 14.156 4.10674 15.0645 4.10674 16.1899ZM4.10674 8.74581V10.0882C4.10674 11.2136 3.19826 12.1221 2.07284 12.1221C0.947415 12.1221 0.0389404 11.2136 0.0389404 10.0882V8.74581C0.0389404 7.62039 0.947415 6.71191 2.07284 6.71191C3.19826 6.71191 4.10674 7.62039 4.10674 8.74581Z" fill="white"/>
<defs>
<linearGradient id="paint0_linear_1_1575" x1="15.7032" y1="37.6604" x2="31.8118" y2="41.4976" gradientUnits="userSpaceOnUse">
<stop stop-color="#FF3B00"/>
<stop offset="1" stop-color="#FF8D00"/>
</linearGradient>
</defs>
</svg>
