<svg width="33" height="80" viewBox="0 0 33 80" fill="none" xmlns="http://www.w3.org/2000/svg">
<path d="M16.5 73.8984C16.1068 73.8984 15.7 73.8713 15.3068 73.8306C10.5746 73.3018 6.66947 69.3425 6.1949 64.5967C5.78812 60.4882 7.75422 56.6645 11.3068 54.5899L13.3271 53.4103V9.27469C13.3271 7.52554 14.7508 6.10181 16.5 6.10181C18.2491 6.10181 19.6729 7.52554 19.6729 9.27469V53.4103L21.6932 54.5899C24.8796 56.4476 26.8593 59.8781 26.8593 63.5391C26.8593 66.3052 25.7881 68.9086 23.822 70.8611C22.8646 71.8285 21.7239 72.5953 20.4667 73.1168C19.2095 73.6383 17.861 73.904 16.5 73.8984Z" fill="#37B5A5"/>
<path d="M32.4729 59.566C32.7984 60.8542 32.9611 62.1965 32.9611 63.5389C32.9611 64.6643 32.0526 65.5728 30.9272 65.5728C29.8018 65.5728 28.8933 64.6643 28.8933 63.5389C28.8933 62.5219 28.7712 61.5186 28.5272 60.5423C28.256 59.4575 28.9204 58.3457 30.0051 58.0745C31.0899 57.8033 32.2018 58.4677 32.4729 59.566Z" fill="white"/>
<path d="M28.5951 71.6746C29.4222 72.4203 29.49 73.7085 28.7443 74.5492C25.5714 78.0746 21.2053 80 16.5273 80C15.9036 80 15.2663 79.9729 14.629 79.8915C6.98154 79.0508 0.879846 72.8678 0.120524 65.1932C-0.476086 59.1864 2.29002 53.3288 7.22561 49.9525V9.27458C7.22561 4.16271 11.3883 0 16.5002 0C21.612 0 25.7748 4.16271 25.7748 9.27458V49.9525C26.507 50.4542 27.1985 51.0237 27.8493 51.6339C28.2232 52.0098 28.4356 52.5168 28.4411 53.047C28.4467 53.5771 28.245 54.0885 27.879 54.4721C27.5131 54.8557 27.0118 55.0813 26.482 55.1008C25.9521 55.1202 25.4357 54.932 25.0426 54.5763C24.3375 53.9119 23.551 53.3153 22.7239 52.8407C22.0866 52.4746 21.707 51.7966 21.707 51.078V50.4271H16.5002C15.3748 50.4271 14.4663 49.5186 14.4663 48.3932C14.4663 47.2678 15.3748 46.3593 16.5002 46.3593H21.707V38.5898H16.5002C15.3748 38.5898 14.4663 37.6814 14.4663 36.5559C14.4663 35.4305 15.3748 34.522 16.5002 34.522H21.707V26.7525H16.5002C15.3748 26.7525 14.4663 25.8441 14.4663 24.7186C14.4663 23.5932 15.3748 22.6847 16.5002 22.6847H21.707V14.9153H16.5002C15.3748 14.9153 14.4663 14.0068 14.4663 12.8814C14.4663 11.7559 15.3748 10.8475 16.5002 10.8475H21.707V9.27458C21.6759 7.91423 21.1137 6.62005 20.1406 5.66893C19.1676 4.7178 17.8609 4.18528 16.5002 4.18528C15.1395 4.18528 13.8328 4.7178 12.8597 5.66893C11.8867 6.62005 11.3245 7.91423 11.2934 9.27458V51.078C11.2934 51.7966 10.9137 52.4746 10.29 52.8271C6.03239 55.3085 3.68663 59.8915 4.17476 64.8C4.73069 70.4814 9.42222 75.2271 15.0765 75.8508C19.1443 76.3119 23.0087 74.8339 25.7205 71.8237C26.4663 70.9966 27.7544 70.9153 28.5951 71.6746Z" fill="white"/>
<path d="M21.5035 58.617C22.1611 59.2737 22.6828 60.0537 23.0387 60.9122C23.3947 61.7707 23.5779 62.691 23.5779 63.6204C23.5779 64.5498 23.3947 65.47 23.0387 66.3286C22.6828 67.1871 22.1611 67.967 21.5035 68.6238C20.1204 70.0068 18.317 70.6984 16.5001 70.6984C14.6831 70.6984 12.8797 70.0068 11.4967 68.6238C10.8391 67.967 10.3174 67.1871 9.96144 66.3286C9.60549 65.47 9.42228 64.5498 9.42228 63.6204C9.42228 62.691 9.60549 61.7707 9.96144 60.9122C10.3174 60.0537 10.8391 59.2737 11.4967 58.617C12.2831 57.817 13.5713 57.817 14.3713 58.617C15.1713 59.417 15.1713 60.6916 14.3713 61.4916C13.1916 62.6712 13.1916 64.5695 14.3713 65.7492C15.5509 66.9289 17.4628 66.9289 18.6289 65.7492C19.8086 64.5695 19.8086 62.6712 18.6289 61.4916C17.8289 60.6916 17.8289 59.417 18.6289 58.617C19.4289 57.817 20.717 57.817 21.5035 58.617ZM4.10686 16.1899V40C4.10686 41.1255 3.19838 42.0339 2.07296 42.0339C0.947537 42.0339 0.0390625 41.1255 0.0390625 40V16.1899C0.0390625 15.0645 0.947537 14.156 2.07296 14.156C3.19838 14.156 4.10686 15.0645 4.10686 16.1899ZM4.10686 8.74581V10.0882C4.10686 11.2136 3.19838 12.1221 2.07296 12.1221C0.947537 12.1221 0.0390625 11.2136 0.0390625 10.0882V8.74581C0.0390625 7.62039 0.947537 6.71191 2.07296 6.71191C3.19838 6.71191 4.10686 7.62039 4.10686 8.74581Z" fill="white"/>
</svg>
