<svg width="923" height="829" viewBox="0 0 923 829" fill="none" xmlns="http://www.w3.org/2000/svg">
<path d="M817.034 53.3864C817.034 63.865 813.925 74.108 808.101 82.8187C802.276 91.5294 793.998 98.3162 784.315 102.32C774.631 106.324 763.977 107.364 753.702 105.31C743.427 103.255 733.992 98.1987 726.592 90.7796C719.193 83.3605 714.16 73.9126 712.133 63.6321C710.105 53.3515 711.173 42.7005 715.202 33.0274C719.231 23.3542 726.039 15.094 734.765 9.29218C743.491 3.4904 753.742 0.40802 764.221 0.435237C771.168 0.435214 778.047 1.80582 784.463 4.46855C790.88 7.13128 796.708 11.0338 801.614 15.9526C806.52 20.8714 810.408 26.7097 813.054 33.1332C815.7 39.5568 817.052 46.4392 817.034 53.3864Z" fill="#F41111"/>
<path opacity="0.7" d="M758.268 28.6296C758.295 30.0555 757.895 31.4569 757.12 32.6538C756.345 33.8508 755.229 34.7887 753.917 35.3469C752.605 35.9052 751.156 36.0584 749.756 35.7868C748.356 35.5153 747.069 34.8314 746.06 33.823C745.052 32.8146 744.368 31.5277 744.096 30.1277C743.825 28.7277 743.978 27.2784 744.536 25.9662C745.095 24.6539 746.032 23.5384 747.229 22.7632C748.426 21.9879 749.828 21.5881 751.254 21.6153C753.114 21.6153 754.898 22.3543 756.213 23.6698C757.529 24.9852 758.268 26.7693 758.268 28.6296Z" fill="white"/>
<path opacity="0.2" d="M778.349 2.3606C785.473 9.86945 790.241 19.3019 792.062 29.4916C793.883 39.6812 792.678 50.1812 788.595 59.6931C784.512 69.205 777.731 77.3117 769.09 83.0107C760.449 88.7096 750.327 91.751 739.976 91.7587C735.333 91.7714 730.708 91.1702 726.223 89.9707C731.867 95.8005 738.779 100.251 746.422 102.978C754.064 105.704 762.233 106.633 770.292 105.691C778.352 104.75 786.087 101.964 792.896 97.5503C799.704 93.1362 805.405 87.2125 809.554 80.2389C813.703 73.2653 816.189 65.4295 816.82 57.3395C817.451 49.2495 816.209 41.123 813.191 33.5906C810.173 26.0582 805.459 19.3226 799.417 13.9066C793.374 8.4905 786.165 4.53963 778.349 2.3606Z" fill="black"/>
<path d="M922.745 208.802C922.718 222.016 918.774 234.926 911.413 245.9C904.052 256.874 893.603 265.42 881.387 270.458C869.171 275.496 855.735 276.8 842.778 274.205C829.821 271.611 817.924 265.234 808.59 255.88C799.255 246.527 792.903 234.616 790.335 221.654C787.767 208.692 789.099 195.259 794.162 183.053C799.225 170.847 807.792 160.416 818.781 153.077C829.771 145.739 842.688 141.822 855.903 141.822C873.643 141.858 890.644 148.931 903.176 161.488C915.707 174.046 922.745 191.061 922.745 208.802Z" fill="#FF9F36"/>
<path opacity="0.2" d="M872.009 144.298C881.088 153.748 887.182 165.664 889.531 178.558C891.879 191.451 890.377 204.75 885.213 216.795C880.049 228.841 871.451 239.097 860.492 246.286C849.534 253.474 836.701 257.275 823.596 257.214C817.933 257.186 812.296 256.446 806.817 255.014C813.862 262.722 822.615 268.673 832.374 272.389C842.134 276.104 852.628 277.482 863.016 276.41C873.403 275.339 883.395 271.849 892.191 266.219C900.987 260.59 908.341 252.977 913.664 243.993C918.987 235.009 922.131 224.902 922.844 214.484C923.557 204.066 921.819 193.625 917.769 183.999C913.719 174.374 907.471 165.831 899.524 159.056C891.577 152.281 882.154 147.462 872.009 144.985V144.298Z" fill="black"/>
<path d="M560.492 75.2542C536.999 64.4559 512.488 56.0247 487.323 50.0852C433.134 73.7413 370.281 67.6898 309.627 48.8474C271.034 57.4369 233.946 71.7622 199.599 91.3459C322.006 112.939 451.702 124.629 560.492 75.2542Z" fill="#FFB727"/>
<path d="M487.323 50.0849C428.972 36.0303 368.168 35.6067 309.627 48.8471C370.28 67.6895 433.134 73.741 487.323 50.0849Z" fill="#FFC215"/>
<path d="M556.23 142.179C580.157 134.478 603.391 124.77 625.685 113.159C605.182 98.506 583.357 85.7977 560.493 75.1993C451.703 124.85 322.007 113.159 199.463 91.566C173.918 106.331 150.073 123.857 128.357 143.83C265.744 199.071 419.273 198.479 556.23 142.179Z" fill="#FF9F36"/>
<path d="M707.931 191.444C700.092 181.267 691.702 171.639 682.9 162.287C645.689 199.467 597.435 223.594 545.365 231.055C392.288 272.315 220.506 275.479 106.626 165.45C87.5977 185.911 70.7719 208.315 56.4259 232.292C255.715 322.378 563.932 365.427 707.931 191.444Z" fill="#F9832B"/>
<path d="M777.249 328.182C774.498 317.866 771.198 307.826 767.622 297.786C734.616 320.189 697.026 334.943 657.593 340.972C440.15 395.024 213.904 396.812 37.3083 265.741C24.2425 293.709 14.5026 323.113 8.28833 353.351C242.236 464.067 562.556 465.167 777.249 328.182Z" fill="#FF6A17"/>
<path d="M767.758 566.806C777.236 540.579 783.921 513.426 787.701 485.797C575.071 642.175 234.534 617.694 7.46252 509.316C14.8885 547.744 28.056 584.836 46.5226 619.344C276.344 701.04 548.802 678.072 767.758 566.806Z" fill="#EA1111"/>
<path d="M68.8026 655.516C82.6634 675.552 98.315 694.288 115.565 711.493C258.739 731.711 401.638 700.078 533.81 744.089C561.791 754.701 591.672 759.384 621.557 757.843C651.46 736.958 678.348 712.06 701.466 683.849C512.492 745.602 268.367 667.619 68.8026 655.516Z" fill="#CE0B0B"/>
<path d="M570.668 787.275C588.372 778.439 605.383 768.279 621.556 756.88C591.67 758.421 561.79 753.738 533.809 743.126C401.637 699.115 258.738 730.748 115.563 710.531C132.962 727.908 151.88 743.696 172.09 757.705C288.858 714.657 442.485 741.476 570.668 787.275Z" fill="#BF0C0C"/>
<path d="M334.797 823.172C354.944 826.43 375.317 828.086 395.726 828.123C407.966 828.123 420.069 828.123 432.035 826.335C399.714 810.519 365.88 804.329 334.797 823.172Z" fill="#751104"/>
<path d="M259.291 803.504C283.745 812.549 309.038 819.138 334.798 823.171C365.881 804.329 399.714 810.518 432.035 826.335C463.586 823.479 494.669 816.782 524.597 806.392C445.376 769.395 342.087 770.633 259.291 803.504Z" fill="#871108"/>
<path d="M172.092 758.668C199.172 777.196 228.466 792.258 259.289 803.505C341.811 770.359 445.375 769.396 524.595 806.393C540.371 801.078 555.765 794.691 570.67 787.275C442.487 741.476 288.859 714.657 172.092 758.668Z" fill="#A3130C"/>
<path d="M701.464 683.849C730.313 648.971 752.926 609.375 768.306 566.806C548.8 678.072 276.342 701.04 46.5203 618.519C53.2614 631.252 60.6996 643.603 68.801 655.516C268.365 667.619 512.49 745.602 701.464 683.849Z" fill="#E01212"/>
<path d="M787.701 485.797C790.124 468.112 791.365 450.284 791.414 432.433C791.414 422.531 791.414 412.766 790.176 403.138C558.841 536.823 222.155 614.668 0.0349121 451.688C1.01995 471.06 3.50301 490.327 7.46183 509.316C234.533 617.694 575.071 642.175 787.701 485.797Z" fill="#F41111"/>
<path d="M790.176 403.139C789.488 394.612 788.663 386.222 787.563 377.97C569.432 523.07 214.04 518.119 4.43605 374.669C1.57073 393.792 0.0998027 413.098 0.0349121 432.434C0.0349121 438.898 0.0349121 445.225 0.0349121 451.689C222.155 614.668 558.841 536.823 790.176 403.139Z" fill="#FF1212"/>
<path d="M787.564 377.97C785.2 361.169 781.754 344.539 777.248 328.182C562.556 465.167 242.236 464.067 8.28776 353.351C6.77487 360.365 5.53705 367.104 4.43677 374.669C214.041 518.118 569.432 523.07 787.564 377.97Z" fill="#FF4715"/>
<path d="M657.041 342.321C696.474 336.292 734.064 321.538 767.07 299.135C752.964 260.32 732.819 223.976 707.379 191.444C563.93 365.427 255.713 322.378 56.0113 231.605C49.1547 243.094 42.911 254.939 37.3065 267.089C213.902 398.16 440.148 396.372 657.041 342.321Z" fill="#FC6F29"/>
<path d="M544.95 231.716C597.021 224.254 645.274 200.128 682.485 162.948C665.142 144.62 646.125 127.952 625.683 113.16C603.38 124.676 580.146 134.292 556.228 141.905C419.271 198.205 265.742 198.797 128.355 143.555C120.653 150.707 113.364 158.134 106.212 165.836C220.091 276.139 391.873 272.564 544.95 231.716Z" fill="#FF9A22"/>
<path opacity="0.2" d="M506.714 52.6981C517.291 88.7466 522.663 126.121 522.668 163.689C522.668 215.652 512.434 267.106 492.548 315.113C472.663 363.12 443.517 406.741 406.774 443.484C332.567 517.69 231.922 559.379 126.979 559.379C89.4101 559.385 52.0339 554.012 15.9878 543.425C35.2445 609.383 71.3449 669.189 120.736 716.957C170.126 764.726 231.105 798.81 297.669 815.854C364.233 832.898 434.088 832.314 500.358 814.161C566.628 796.009 627.029 760.912 675.615 712.325C724.201 663.739 759.298 603.338 777.451 537.068C795.604 470.798 796.187 400.943 779.143 334.379C762.099 267.815 728.016 206.837 680.247 157.446C632.479 108.055 572.672 71.9549 506.714 52.6981Z" fill="url(#paint0_linear_1_1082)"/>
<path opacity="0.6" d="M275.93 135.22C287.758 150.899 275.93 180.331 248.423 200.962C220.916 221.592 189.42 225.58 177.455 209.901C165.489 194.222 177.455 164.652 204.962 144.022C232.469 123.392 263.965 119.541 275.93 135.22Z" fill="white"/>
<path opacity="0.4" d="M847.667 182.807C847.667 183.903 847.449 184.987 847.026 185.997C846.603 187.008 845.982 187.924 845.202 188.692C844.421 189.46 843.495 190.065 842.477 190.471C841.46 190.878 840.372 191.078 839.277 191.06C837.612 191.059 835.985 190.564 834.602 189.635C833.22 188.707 832.145 187.389 831.514 185.848C830.883 184.307 830.725 182.613 831.06 180.982C831.395 179.351 832.208 177.856 833.395 176.689C834.582 175.521 836.09 174.733 837.726 174.425C839.363 174.117 841.054 174.303 842.584 174.959C844.115 175.615 845.415 176.712 846.32 178.109C847.225 179.507 847.694 181.142 847.667 182.807Z" fill="white"/>
<defs>
<linearGradient id="paint0_linear_1_1082" x1="177.73" y1="262.852" x2="846.702" y2="783.424" gradientUnits="userSpaceOnUse">
<stop/>
<stop offset="0.14" stop-color="#030001"/>
<stop offset="0.27" stop-color="#0E0103"/>
<stop offset="0.39" stop-color="#200206"/>
<stop offset="0.51" stop-color="#3A040B"/>
<stop offset="0.62" stop-color="#5A0611"/>
<stop offset="0.73" stop-color="#820919"/>
<stop offset="0.84" stop-color="#B20C22"/>
<stop offset="0.95" stop-color="#E80F2D"/>
<stop offset="0.99" stop-color="#FF1131"/>
</linearGradient>
</defs>
</svg>
