<svg width="63" height="64" viewBox="0 0 63 64" fill="none" xmlns="http://www.w3.org/2000/svg">
<path d="M4.86276 40.9601C3.69068 40.1791 2.40492 39.584 1.05103 39.1958C1.8665 42.8826 3.34236 46.3915 5.40729 49.5528C7.03 46.1549 8.46757 43.2145 4.86276 40.9601Z" fill="#37B5A5"/>
<path d="M34.126 47.1678C16.396 56.0328 11.9526 35.6346 1.3669 26.7696C1.22435 26.6374 1.06284 26.5273 0.88771 26.4429C0.501961 28.3763 0.29778 30.3415 0.277832 32.3129C0.278892 34.6289 0.538241 36.9374 1.05107 39.1958C2.40496 39.584 3.69072 40.1792 4.8628 40.9601C8.46762 43.2145 7.04094 46.155 5.4509 49.5529C8.4566 54.0844 12.5836 57.7611 17.4306 60.2257C26.8511 51.6221 38.8526 51.8399 50.1027 54.2576C51.1445 54.2998 52.1576 54.6113 53.0431 55.1616C57.1207 51.3391 60.1023 46.4963 61.6794 41.1344C58.9331 38.2978 55.583 36.1165 51.8778 34.7525C42.1089 31.2021 41.2159 43.6175 34.126 47.1678Z" fill="#4DCEBB"/>
<path d="M17.3979 60.2256C23.1357 63.1555 29.6384 64.2415 36.0168 63.335C42.3952 62.4286 48.3379 59.5739 53.0322 55.1615C52.1466 54.6111 51.1335 54.2997 50.0917 54.2575C38.8199 51.8398 26.8184 51.622 17.3979 60.2256Z" fill="#37B5A5"/>
<path d="M14.6208 23.23C17.6049 19.048 12.5516 15.6719 7.30228 12.5571C5.35576 14.9544 3.77407 17.626 2.6084 20.4855C7.79236 24.2319 11.615 29.8406 14.6208 23.23Z" fill="#37B5A5"/>
<path d="M62.5289 27.227C56.3539 29.2091 50.1244 28.5774 46.5414 24.9944C43.1544 20.9322 51.1373 17.9046 56.6915 13.5374C55.3852 11.7999 53.9035 10.2014 52.2699 8.76731C50.4769 8.84292 48.7209 9.30199 47.1203 10.1136C45.5197 10.9251 44.1117 12.0704 42.9911 13.4721C38.5585 21.4549 40.3337 31.2021 33.2439 35.6346C28.8005 38.3028 25.261 34.7525 22.6037 32.0951C17.2782 24.9944 21.7107 12.5899 12.8021 8.13565L12.018 7.81982C10.2678 9.22144 8.67239 10.8059 7.25875 12.5464C12.5081 15.6611 17.5613 19.0808 14.5773 23.2192C11.5715 29.8299 7.74883 24.2212 2.59754 20.4748C1.8114 22.4002 1.22035 24.3995 0.833252 26.4429C1.00838 26.5273 1.1699 26.6374 1.31244 26.7696C11.9526 35.6346 16.396 56.0328 34.126 47.1678C41.2159 43.6175 42.1089 31.2021 51.8561 34.7525C55.5612 36.1165 58.9114 38.2978 61.6577 41.1344C62.4989 38.2693 62.9279 35.299 62.9319 32.3129C62.9306 30.6097 62.7959 28.9092 62.5289 27.227Z" fill="#36EAC7"/>
<path d="M46.5414 24.9946C50.1244 28.5776 56.343 29.2093 62.5289 27.2272C61.7074 22.2624 59.7055 17.5675 56.6915 13.5376C51.1372 17.9048 43.1544 20.9324 46.5414 24.9946Z" fill="#37B5A5"/>
<path d="M25.2611 14.3543C25.2611 17.0225 28.8006 19.6798 32.3509 18.7977C38.5368 15.3562 37.3062 8.17929 36.7943 1.41618C33.2701 0.806586 29.6674 0.806586 26.1433 1.41618C26.7422 5.33682 24.7275 10.6297 25.2611 14.3543Z" fill="#92FFEA"/>
<path d="M36.7942 1.41602C37.2625 8.17912 38.5367 15.3561 32.3508 18.8411C28.8005 19.7232 25.261 17.0659 25.261 14.3977C24.7274 10.6295 26.7422 5.33666 26.1432 1.45958C20.9895 2.36959 16.1473 4.56039 12.0615 7.83062L12.8457 8.14645C21.7107 12.5898 17.2782 24.9943 22.6473 32.1059C25.3046 34.7633 28.844 38.3136 33.2874 35.6454C40.3773 31.2129 38.6021 21.4875 43.0891 13.4829C44.2097 12.0812 45.6177 10.9359 47.2183 10.1244C48.8189 9.31278 50.5749 8.85372 52.3679 8.77811C47.9701 4.9118 42.5733 2.3606 36.7942 1.41602Z" fill="#55FFDE"/>
<path d="M26.7202 44.1403C26.2193 45.4363 23.9105 45.7521 21.5581 44.8482C19.2057 43.9443 17.7028 42.1582 18.2037 40.8622C18.7047 39.5662 20.97 39.2504 23.3659 40.187C25.7619 41.1236 27.2212 42.8443 26.7202 44.1403Z" fill="#4DCEBB"/>
<path d="M33.9517 28.2616C34.3656 30.0695 32.7211 31.9971 30.2598 32.5634C27.7985 33.1297 25.4788 32.1169 25.065 30.3091C24.6511 28.5012 26.2956 26.5736 28.746 26.029C31.1964 25.4845 33.5379 26.4538 33.9517 28.2616Z" fill="#36EAC7"/>
<path d="M51.3114 43.7591C51.0054 44.3255 50.5389 44.7889 49.9705 45.0911C49.4021 45.3932 48.7571 45.5208 48.1164 45.4576C47.4758 45.3945 46.8681 45.1435 46.3696 44.7361C45.8711 44.3288 45.504 43.7833 45.3145 43.1681C45.125 42.5529 45.1214 41.8954 45.3043 41.2781C45.4871 40.6609 45.8482 40.1114 46.3423 39.6987C46.8363 39.286 47.4413 39.0285 48.0812 38.9584C48.7212 38.8883 49.3675 39.0088 49.9392 39.3048C50.3245 39.5043 50.6662 39.7786 50.9443 40.1116C51.2225 40.4446 51.4315 40.8296 51.5593 41.2443C51.687 41.6589 51.7309 42.0948 51.6883 42.5266C51.6458 42.9584 51.5176 43.3774 51.3114 43.7591Z" fill="#37B5A5"/>
<path d="M36.5002 56.8607C36.5656 57.7864 35.1716 58.625 33.3855 58.7557C31.5994 58.8863 30.1183 58.2329 30.0312 57.3181C29.944 56.4033 31.3598 55.5538 33.1459 55.434C34.932 55.3142 36.4349 55.9459 36.5002 56.8607Z" fill="#228778"/>
<path d="M23.3334 5.69611C23.7472 6.51291 22.7997 7.87425 21.1553 8.65838C19.5108 9.44251 17.888 9.47518 17.5069 8.65838C17.1257 7.84158 18.0405 6.48024 19.685 5.69611C21.3295 4.91199 22.9086 4.87931 23.3334 5.69611Z" fill="#92FFEA"/>
<path d="M55.6022 22.3045C55.6676 23.2193 54.2845 24.0688 52.4984 24.2104C50.7123 24.3519 49.2312 23.7094 49.1332 22.7946C49.0352 21.8798 50.4618 21.0194 52.2479 20.8887C54.034 20.758 55.526 21.3897 55.6022 22.3045Z" fill="#36EAC7"/>
<path opacity="0.2" d="M40.3989 2.24365C41.2373 5.09794 41.6627 8.05756 41.6623 11.0324C41.6637 15.1475 40.8542 19.2225 39.2801 23.0245C37.706 26.8266 35.3982 30.2812 32.4884 33.191C29.5786 36.1008 26.124 38.4087 22.3219 39.9828C18.5198 41.5569 14.4448 42.3663 10.3298 42.3649C7.35545 42.3689 4.39584 41.9471 1.54102 41.1125C3.06773 46.334 5.92767 51.0681 9.83941 54.8489C13.7512 58.6296 18.5799 61.3267 23.8504 62.6748C29.121 64.0228 34.6517 63.9753 39.8983 62.537C45.1449 61.0987 49.9266 58.3191 53.7729 54.4718C57.6191 50.6244 60.3974 45.8419 61.8342 40.5949C63.2711 35.3479 63.317 29.8172 61.9675 24.547C60.618 19.2769 57.9195 14.4489 54.1377 10.5382C50.3558 6.62752 45.6209 3.7689 40.3989 2.24365Z" fill="url(#paint0_linear_1_2026)"/>
<path opacity="0.7" d="M24.1174 9.69298C25.054 10.9345 24.0629 13.2651 21.9392 14.8987C19.8155 16.5323 17.2671 16.8482 16.3305 15.5957C15.3939 14.3433 16.3305 12.0236 18.5087 10.39C20.6868 8.75639 23.1481 8.40788 24.1174 9.69298Z" fill="white"/>
<defs>
<linearGradient id="paint0_linear_1_2026" x1="14.3484" y1="18.8846" x2="67.3207" y2="60.0949" gradientUnits="userSpaceOnUse">
<stop/>
<stop offset="0.57"/>
<stop offset="0.61"/>
<stop offset="1" stop-color="#404040"/>
</linearGradient>
</defs>
</svg>
