<svg width="233" height="32" viewBox="0 0 233 32" fill="none" xmlns="http://www.w3.org/2000/svg">
<path d="M6.14267 32C5.03588 32 4.01211 31.7233 3.07134 31.1699C2.13057 30.6165 1.38348 29.8694 0.830091 28.9287C0.276697 27.9879 0 26.9641 0 25.8573V8.2594C0 7.12495 0.276697 6.10117 0.830091 5.18807C1.38348 4.2473 2.13057 3.50022 3.07134 2.94682C4.01211 2.39343 5.03588 2.11673 6.14267 2.11673H23.6991C24.8335 2.11673 25.8573 2.39343 26.7704 2.94682C27.7112 3.50022 28.4583 4.2473 29.0117 5.18807C29.5927 6.10117 29.8833 7.12495 29.8833 8.2594V11.0817H23.3671V8.59144H6.4332V25.5253H23.3671V21.0428H16.8923V14.5681H29.8833V25.8573C29.8833 26.9641 29.5927 27.9879 29.0117 28.9287C28.4583 29.8694 27.7112 30.6165 26.7704 31.1699C25.8573 31.7233 24.8335 32 23.6991 32H6.14267Z" fill="white"/>
<path d="M40.3041 32C39.1974 32 38.1874 31.7233 37.2743 31.1699C36.3612 30.6165 35.628 29.8833 35.0746 28.9702C34.5489 28.0571 34.286 27.061 34.286 25.9818V16.7678H52.3405V14.2776H34.286V7.92737H52.6725C53.7793 7.92737 54.7892 8.20406 55.7023 8.75746C56.6154 9.31085 57.3348 10.0441 57.8606 10.9572C58.414 11.8703 58.6907 12.8664 58.6907 13.9455V32H40.3041ZM40.6362 25.6498H52.3405V22.3294H40.6362V25.6498Z" fill="white"/>
<path d="M68.0279 32C66.9488 32 65.9527 31.7233 65.0396 31.1699C64.1265 30.6165 63.3932 29.8833 62.8398 28.9702C62.2864 28.0571 62.0097 27.061 62.0097 25.9818V0H68.4014V25.6498H73.2574V32H68.0279Z" fill="white"/>
<path d="M82.4977 32C81.3909 32 80.381 31.7233 79.4679 31.1699C78.5548 30.6165 77.8215 29.8833 77.2682 28.9702C76.7424 28.0571 76.4796 27.061 76.4796 25.9818V16.7678H94.534V14.2776H76.4796V7.92737H94.8661C95.9729 7.92737 96.9828 8.20406 97.8959 8.75746C98.809 9.31085 99.5284 10.0441 100.054 10.9572C100.608 11.8703 100.884 12.8664 100.884 13.9455V32H82.4977ZM82.8298 25.6498H94.534V22.3294H82.8298V25.6498Z" fill="white"/>
<path d="M109.815 32C108.736 32 107.74 31.7233 106.827 31.1699C105.914 30.6165 105.181 29.8833 104.627 28.9702C104.074 28.0571 103.797 27.061 103.797 25.9818V13.9455C103.797 12.8664 104.074 11.8703 104.627 10.9572C105.181 10.0441 105.914 9.31085 106.827 8.75746C107.74 8.20406 108.736 7.92737 109.815 7.92737H128.16V14.2776H110.147V25.6498H128.202V32H109.815Z" fill="white"/>
<path d="M137.663 32C136.557 32 135.547 31.7233 134.634 31.1699C133.72 30.6165 132.987 29.8833 132.434 28.9702C131.88 28.0571 131.604 27.061 131.604 25.9818V0.788586H137.954V7.92737H146.877V14.2776H137.954V25.6498H146.877V32H137.663Z" fill="white"/>
<path d="M150.288 32V7.92737H156.638V32H150.288ZM150.288 6.4332V0.041504H156.638V6.4332H150.288Z" fill="white"/>
<path d="M166.195 32C165.116 32 164.12 31.7233 163.207 31.1699C162.293 30.6165 161.56 29.8833 161.007 28.9702C160.453 28.0571 160.177 27.061 160.177 25.9818V13.9455C160.177 12.8664 160.453 11.8703 161.007 10.9572C161.56 10.0441 162.293 9.31085 163.207 8.75746C164.12 8.20406 165.116 7.92737 166.195 7.92737H184.54V14.2776H166.527V25.6498H184.581V32H166.195Z" fill="white"/>
<path d="M189.16 32V25.6498H195.51V32H189.16Z" fill="white"/>
<path d="M198.764 32V7.92737H205.114V32H198.764ZM198.764 6.4332V0.041504H205.114V6.4332H198.764Z" fill="white"/>
<path d="M214.225 32C213.146 32 212.15 31.7233 211.237 31.1699C210.324 30.6165 209.59 29.8833 209.037 28.9702C208.484 28.0571 208.207 27.061 208.207 25.9818V13.9455C208.207 12.8664 208.484 11.8703 209.037 10.9572C209.59 10.0441 210.324 9.31085 211.237 8.75746C212.15 8.20406 213.146 7.92737 214.225 7.92737H226.593C227.7 7.92737 228.71 8.20406 229.623 8.75746C230.536 9.31085 231.256 10.0441 231.781 10.9572C232.335 11.8703 232.612 12.8664 232.612 13.9455V25.9818C232.612 27.061 232.335 28.0571 231.781 28.9702C231.256 29.8833 230.536 30.6165 229.623 31.1699C228.71 31.7233 227.7 32 226.593 32H214.225ZM214.557 25.6498H226.261V14.2776H214.557V25.6498Z" fill="white"/>
</svg>
